# Blender v2.79 (sub 0) OBJ File: 'rounded-plane.blend'
# www.blender.org
mtllib balloon.mtl
o triangle_Plane.002
v -0.000000 -0.700000 -0.000000
v 0.100000 -0.500000 0.000000
v -0.100000 -0.500000 0.000000
vn 0.0000 -0.0000 1.0000
usemtl None
s off
f 1//1 2//1 3//1
o rounded-plane_Plane
v 0.431519 0.500000 -0.000000
v 0.500000 0.431518 -0.000000
v 0.449243 0.497666 -0.000000
v 0.465759 0.490825 -0.000000
v 0.479942 0.479942 -0.000000
v 0.490825 0.465759 -0.000000
v 0.497667 0.449243 -0.000000
v -0.500000 0.431519 0.000000
v -0.431518 0.500000 0.000000
v -0.497666 0.449243 0.000000
v -0.490825 0.465759 0.000000
v -0.479942 0.479942 0.000000
v -0.465759 0.490825 0.000000
v -0.449243 0.497667 0.000000
v 0.431518 -0.500000 -0.000000
v 0.500000 -0.431519 -0.000000
v 0.449243 -0.497667 -0.000000
v 0.465759 -0.490825 -0.000000
v 0.479942 -0.479942 -0.000000
v 0.490825 -0.465759 -0.000000
v 0.497666 -0.449243 -0.000000
v -0.431519 -0.500000 0.000000
v -0.500000 -0.431518 0.000000
v -0.449243 -0.497666 0.000000
v -0.465759 -0.490825 0.000000
v -0.479942 -0.479942 0.000000
v -0.490825 -0.465759 0.000000
v -0.497667 -0.449243 0.000000
vn 0.0000 0.0000 1.0000
usemtl None
s off
f 5//2 10//2 9//2 8//2 7//2 6//2 4//2 12//2 17//2 16//2 15//2 14//2 13//2 11//2 26//2 31//2 30//2 29//2 28//2 27//2 25//2 18//2 20//2 21//2 22//2 23//2 24//2 19//2
