# Blender v2.79 (sub 0) OBJ File: 'rounded-plane.blend'
# www.blender.org
mtllib rounded-plane.mtl
o Plane
v 0.863037 1.000000 -0.000000
v 1.000000 0.863036 -0.000000
v 0.898486 0.995333 -0.000000
v 0.931519 0.981650 -0.000000
v 0.959885 0.959884 -0.000000
v 0.981651 0.931518 -0.000000
v 0.995333 0.898485 -0.000000
v -1.000000 0.863037 0.000000
v -0.863036 1.000000 0.000000
v -0.995333 0.898486 0.000000
v -0.981650 0.931519 0.000000
v -0.959884 0.959885 0.000000
v -0.931518 0.981651 0.000000
v -0.898485 0.995333 0.000000
v 0.863036 -1.000000 -0.000000
v 1.000000 -0.863037 -0.000000
v 0.898485 -0.995333 -0.000000
v 0.931518 -0.981651 -0.000000
v 0.959884 -0.959885 -0.000000
v 0.981650 -0.931519 -0.000000
v 0.995333 -0.898486 -0.000000
v -0.863037 -1.000000 0.000000
v -1.000000 -0.863036 0.000000
v -0.898486 -0.995333 0.000000
v -0.931519 -0.981650 0.000000
v -0.959885 -0.959884 0.000000
v -0.981651 -0.931518 0.000000
v -0.995333 -0.898485 0.000000
vn 0.0000 0.0000 1.0000
usemtl None
s off
f 2//1 7//1 6//1 5//1 4//1 3//1 1//1 9//1 14//1 13//1 12//1 11//1 10//1 8//1 23//1 28//1 27//1 26//1 25//1 24//1 22//1 15//1 17//1 18//1 19//1 20//1 21//1 16//1
